<svg width="32" height="32" fill="none" xmlns="http://www.w3.org/2000/svg"><path d="M25.88 17.333c-.293 0-.6-.093-.893-.16a13.131 13.131 0 0 1-1.747-.52 2.667 2.667 0 0 0-3.307 1.334l-.293.613a17.56 17.56 0 0 1-3.56-2.667 17.56 17.56 0 0 1-2.667-3.56l.614-.28a2.667 2.667 0 0 0 1.333-3.306 13.945 13.945 0 0 1-.52-1.76c-.067-.294-.12-.6-.16-.894a4 4 0 0 0-4-3.32H6.667A4 4 0 0 0 3.68 4.147a4 4 0 0 0-.973 3.2A25.426 25.426 0 0 0 9.92 22.013a25.426 25.426 0 0 0 14.667 7.214c.173.013.347.013.52 0a4 4 0 0 0 2.666-1.014 4 4 0 0 0 1.334-2.986v-4a4 4 0 0 0-3.227-3.894Zm.653 8a1.332 1.332 0 0 1-.44.987 1.334 1.334 0 0 1-1.093.333A22.88 22.88 0 0 1 11.84 20.2 22.88 22.88 0 0 1 5.333 7a1.333 1.333 0 0 1 .334-1.093 1.333 1.333 0 0 1 1-.44h4A1.333 1.333 0 0 1 12 6.507c0 .36.12.733.2 1.093.154.698.36 1.385.613 2.053l-1.866.88c-.321.148-.57.416-.694.747a1.334 1.334 0 0 0 0 1.013 19.32 19.32 0 0 0 9.334 9.334c.324.133.688.133 1.013 0 .33-.123.6-.373.747-.694l.84-1.866a16.546 16.546 0 0 0 3.186.813 1.333 1.333 0 0 1 1.04 1.333l.12 4.12ZM18.667 2.667h-.934a1.338 1.338 0 1 0 .227 2.666h.707a8 8 0 0 1 8 8v.707a1.333 1.333 0 0 0 1.213 1.44h.107a1.334 1.334 0 0 0 1.333-1.213v-.934A10.667 10.667 0 0 0 18.667 2.667Zm2.666 10.666a1.333 1.333 0 0 0 2.667 0A5.333 5.333 0 0 0 18.667 8a1.334 1.334 0 1 0 0 2.667 2.667 2.667 0 0 1 2.666 2.666Z" fill="#B69D75"/></svg>