<svg width="32" height="32" fill="none" xmlns="http://www.w3.org/2000/svg"><path d="M25.333 10.667H24v-4a4 4 0 0 0-4-4H6.667a4 4 0 0 0-4 4v16a1.333 1.333 0 0 0 .826 1.226c.159.075.332.111.507.107a1.333 1.333 0 0 0 .947-.387l3.746-3.76h1.974v1.92a4 4 0 0 0 4 4h9.226l3.16 3.174a1.336 1.336 0 0 0 .947.386 1.12 1.12 0 0 0 .507-.106A1.334 1.334 0 0 0 29.333 28V14.667a4 4 0 0 0-4-4Zm-14.666 4v2.52h-2.52a1.333 1.333 0 0 0-.947.386l-1.867 1.88V6.667a1.333 1.333 0 0 1 1.334-1.334H20a1.333 1.333 0 0 1 1.333 1.334v4h-6.666a4 4 0 0 0-4 4Zm16 10.12-1.334-1.334a1.332 1.332 0 0 0-.946-.4h-9.72a1.334 1.334 0 0 1-1.334-1.333v-7.053a1.334 1.334 0 0 1 1.334-1.334h10.666a1.333 1.333 0 0 1 1.334 1.334v10.12Z" fill="#B69D75"/></svg>