<svg width="582" height="196" fill="none" xmlns="http://www.w3.org/2000/svg"><path d="M95.75 44.13 59.1 88.26a26.978 26.978 0 0 1-20.753 9.73h-.01c-22.839 0-35.334-26.573-20.753-44.13L54.243 9.73A26.978 26.978 0 0 1 74.996 0h.01c22.83 0 35.334 26.574 20.753 44.13h-.01ZM63.675 97.99a26.955 26.955 0 0 0-20.753 9.741L6.263 151.87C-8.317 169.426 4.187 196 27.017 196a26.958 26.958 0 0 0 20.753-9.74l36.659-44.139C99.009 124.564 86.505 98 63.675 98v-.01ZM154.994 0h-.01a26.978 26.978 0 0 0-20.753 9.73l-36.65 44.13c-14.58 17.557-2.085 44.13 20.754 44.13h.009a26.98 26.98 0 0 0 20.754-9.73l36.659-44.13C190.337 26.574 177.842 0 155.003 0h-.009Zm-11.321 97.99a26.954 26.954 0 0 0-20.753 9.741L86.26 151.87C71.68 169.426 84.185 196 107.015 196a26.957 26.957 0 0 0 20.753-9.74l36.659-44.139C179.007 124.564 166.503 98 143.673 98v-.01ZM234.991 0h-.009a26.978 26.978 0 0 0-20.753 9.73l-36.65 44.13c-14.581 17.557-2.085 44.13 20.754 44.13h.009a26.978 26.978 0 0 0 20.753-9.73l36.65-44.13C270.326 26.574 257.83 0 234.991 0Zm-11.32 97.99a26.955 26.955 0 0 0-20.754 9.741l-36.659 44.139c-14.581 17.556-2.076 44.13 20.754 44.13a26.957 26.957 0 0 0 20.753-9.74l36.659-44.139C259.005 124.564 246.5 98 223.671 98v-.01ZM314.989 0h-.009a26.98 26.98 0 0 0-20.754 9.73l-36.649 44.13c-14.581 17.557-2.086 44.13 20.753 44.13h.01a26.978 26.978 0 0 0 20.753-9.73l36.649-44.13C350.323 26.574 337.828 0 314.989 0Zm-11.321 97.99a26.954 26.954 0 0 0-20.753 9.741l-36.659 44.139C231.675 169.426 244.18 196 267.009 196a26.959 26.959 0 0 0 20.754-9.74l36.659-44.139C339.002 124.564 326.498 98 303.668 98v-.01ZM394.987 0a26.98 26.98 0 0 0-20.754 9.73l-36.649 44.13c-14.581 17.557-2.086 44.13 20.753 44.13h.009a26.978 26.978 0 0 0 20.754-9.73l36.649-44.13C430.33 26.574 417.835 0 394.996 0h-.009Zm-11.321 97.99a26.956 26.956 0 0 0-20.754 9.741l-36.658 44.139c-14.581 17.556-2.086 44.13 20.753 44.13a26.957 26.957 0 0 0 20.753-9.74l36.659-44.139C419 124.564 406.495 98 383.666 98v-.01ZM474.984 0h-.009a26.981 26.981 0 0 0-20.754 9.73l-36.649 44.13c-14.581 17.557-2.086 44.13 20.753 44.13h.01a26.978 26.978 0 0 0 20.753-9.73l36.65-44.13C510.318 26.574 497.823 0 474.984 0Zm-11.321 97.99a26.954 26.954 0 0 0-20.753 9.741l-36.659 44.139C391.67 169.426 404.175 196 427.004 196a26.957 26.957 0 0 0 20.754-9.74l36.659-44.139C498.998 124.564 486.502 98 463.663 98v-.01ZM554.982 0h-.01a26.978 26.978 0 0 0-20.753 9.73L497.57 53.86c-14.581 17.557-2.086 44.13 20.753 44.13h.009a26.98 26.98 0 0 0 20.754-9.73l36.649-44.13C590.316 26.574 577.821 0 554.982 0Zm-11.321 97.99a26.954 26.954 0 0 0-20.753 9.741l-36.659 44.139c-14.581 17.556-2.077 44.13 20.753 44.13a26.957 26.957 0 0 0 20.753-9.74l36.659-44.139C578.995 124.564 566.491 98 543.661 98v-.01Z" fill="#1a1a1a"/></svg>