<svg width="32" height="32" fill="none" xmlns="http://www.w3.org/2000/svg"><path d="M28.293 16a4 4 0 0 0 1.04-2.667 4 4 0 0 0-4-4h-6.906A4 4 0 0 0 14.667 4h-8a4 4 0 0 0-4 4 4 4 0 0 0 1.04 2.667 4 4 0 0 0 0 5.333 4 4 0 0 0 0 5.333A4 4 0 0 0 2.667 24a4 4 0 0 0 4 4h18.666a4 4 0 0 0 2.96-6.667 4 4 0 0 0 0-5.333Zm-13.626 9.333h-8a1.333 1.333 0 1 1 0-2.666h8a1.333 1.333 0 1 1 0 2.666Zm0-5.333h-8a1.334 1.334 0 0 1 0-2.667h8a1.333 1.333 0 1 1 0 2.667Zm0-5.333h-8a1.333 1.333 0 0 1 0-2.667h8a1.333 1.333 0 0 1 0 2.667Zm0-5.334h-8a1.333 1.333 0 1 1 0-2.666h8a1.333 1.333 0 1 1 0 2.666Zm11.586 15.614a1.24 1.24 0 0 1-.92.386h-6.906c.32-.86.32-1.806 0-2.666h6.906A1.333 1.333 0 0 1 26.667 24a1.333 1.333 0 0 1-.414.947Zm0-5.334a1.24 1.24 0 0 1-.92.387h-6.906c.32-.86.32-1.806 0-2.667h6.906a1.333 1.333 0 0 1 1.334 1.334 1.334 1.334 0 0 1-.414.946Zm0-5.333a1.24 1.24 0 0 1-.92.387h-6.906c.32-.86.32-1.807 0-2.667h6.906a1.333 1.333 0 0 1 1.334 1.333 1.333 1.333 0 0 1-.414.947Z" fill="#B69D75"/></svg>