<svg width="48" height="48" fill="none" xmlns="http://www.w3.org/2000/svg"><path d="M44.202 11.703H35.23V8.317C35.229 5.385 32.817 3 29.853 3H17.147c-2.964 0-5.376 2.385-5.376 5.317v3.386H2.797C1.255 11.703 0 12.944 0 14.47v6.976c0 1.604.656 2.998 1.995 4.224v14.983C1.995 43.05 3.967 45 6.39 45h34.22c2.423 0 4.395-1.95 4.395-4.347V25.666C46.328 24.448 47 23.031 47 21.446V14.47c0-1.526-1.255-2.767-2.798-2.767ZM14.01 8.317c0-1.711 1.408-3.103 3.138-3.103h12.706c1.73 0 3.137 1.392 3.137 3.103v3.386h-1.53V8.317a1.6 1.6 0 0 0-1.607-1.59H17.147a1.6 1.6 0 0 0-1.608 1.59v3.386h-1.53V8.317Zm15.213 3.386H17.777V8.94h11.445v2.762ZM2.238 14.47c0-.305.25-.554.56-.554h41.404c.309 0 .56.249.56.554v6.976c0 1.076-.504 1.986-1.586 2.865-.266.215-.571.432-.908.643-2.223 1.39-7.104 2.433-13.192 2.834V24.73c0-.61-.5-1.106-1.119-1.106h-8.914c-.618 0-1.12.495-1.12 1.107v3.06c-6.08-.398-10.96-1.442-13.19-2.838-1.702-1.064-2.495-2.178-2.495-3.507V14.47Zm24.6 11.367v6.604h-6.676v-6.604h6.676Zm13.772 16.95H6.39c-1.19 0-2.157-.958-2.157-2.134V27.22c3.576 1.846 9.674 2.534 13.69 2.79v3.538c0 .611.502 1.107 1.12 1.107h8.914c.618 0 1.12-.496 1.12-1.107v-3.541c4.02-.258 10.121-.947 13.69-2.788v13.434c0 1.176-.968 2.133-2.157 2.133Z" fill="#042925"/></svg>