<svg width="48" height="48" fill="none" xmlns="http://www.w3.org/2000/svg"><path d="M47 11.565h-2.856V9.358c0-.412-.24-.783-.608-.945C37.504 5.77 30.082 6.89 24 11.32 17.918 6.89 10.496 5.77 4.464 8.413a1.028 1.028 0 0 0-.608.945v2.207H1c-.552 0-1 .46-1 1.027v28.381C0 41.54.448 42 1 42h46c.552 0 1-.46 1-1.027V12.592c0-.568-.448-1.027-1-1.027ZM2 39.946V13.618h1.856V37.74c0 .345.169.667.45.857.28.19.634.223.943.088 4.684-2.053 10.34-1.54 15.361 1.262H2Zm21-.936c-3.65-2.388-7.71-3.628-11.629-3.628-1.892 0-3.75.289-5.515.877V12.604l.001-.012v-2.54C11.19 8 17.656 9.147 23 13.11v25.9Zm2-25.9C30.342 9.146 36.81 8 42.144 10.051V36.26c-5.419-1.807-11.732-.79-17.144 2.75v-25.9Zm21 26.836H27.39c5.02-2.802 10.677-3.315 15.361-1.262a.977.977 0 0 0 .944-.088c.28-.19.449-.512.449-.857V13.62H46v26.327Z" fill="#042925"/></svg>