<svg width="48" height="48" fill="none" xmlns="http://www.w3.org/2000/svg"><path d="M43.239 7.24 24.857 1.058a1.12 1.12 0 0 0-.714 0L5.762 7.24C5.307 7.393 5 7.82 5 8.3v15.347c0 11.368 8.112 21.18 19.288 23.333a1.117 1.117 0 0 0 .424 0C35.888 44.828 44 35.015 44 23.647V8.3c0-.48-.306-.906-.761-1.059Zm-1.476 16.407c0 10.227-7.246 19.065-17.263 21.097-10.016-2.032-17.263-10.87-17.263-21.097V9.102L24.5 3.296l17.263 5.806v14.545Zm-28.727-.578c0 6.315 5.143 11.452 11.464 11.452 6.322 0 11.465-5.137 11.465-11.452S30.822 11.617 24.5 11.617s-11.464 5.137-11.464 11.452Zm20.691 0c0 5.082-4.14 9.217-9.227 9.217-5.088 0-9.227-4.135-9.227-9.217 0-5.083 4.14-9.218 9.227-9.218 5.088 0 9.227 4.135 9.227 9.218ZM24.5 15.307c.618 0 1.119.5 1.119 1.118v.541c1.44.335 2.61 1.302 3.012 2.576a1.119 1.119 0 0 1-2.133.672c-.18-.566-.923-1.14-1.998-1.14-1.108 0-2.044.659-2.044 1.439s.936 1.438 2.044 1.438c2.36 0 4.281 1.648 4.281 3.674 0 1.694-1.342 3.124-3.162 3.547v.54a1.118 1.118 0 0 1-2.238 0v-.538c-1.29-.294-2.357-1.09-2.863-2.193a1.119 1.119 0 0 1 2.033-.932c.275.598 1.076 1.015 1.95 1.015 1.107 0 2.043-.659 2.043-1.439s-.936-1.439-2.044-1.439c-2.36 0-4.281-1.648-4.281-3.673 0-1.694 1.342-3.124 3.162-3.547v-.541c0-.617.501-1.118 1.12-1.118Z" fill="#042925"/></svg>