<svg width="48" height="48" fill="none" xmlns="http://www.w3.org/2000/svg"><g fill="#042925"><path d="M24 18.415C21.867 14.54 18.515 12 14.192 12 7.697 12 3 17.42 3 24.072c0 8.024 7.96 14.053 14.992 19.975 1.103.929 2.244 1.89 3.428 2.9 1.653 1.411 4.132 1.403 5.768-.018C39.414 36.309 45 31.52 45 24.072 45 17.424 40.306 12 33.808 12c-4.325 0-7.675 2.542-9.808 6.415Zm0 4.494a2.777 2.777 0 0 1 2.769 2.778A2.777 2.777 0 0 1 24 28.465a2.777 2.777 0 0 1-2.769-2.778A2.777 2.777 0 0 1 24 22.909Zm1.376 21.92a1.667 1.667 0 0 1-2.162.002c-1.19-1.016-4.652-3.931-5.234-4.424.331-.183.642-.413.921-.693a4.179 4.179 0 0 0 .823-4.697A9.618 9.618 0 0 1 24 34.022c1.562 0 3.071.37 4.434 1.076-.74 1.556-.487 3.46.798 4.75.303.303.642.549 1.003.74a855.001 855.001 0 0 1-4.859 4.24Zm8.432-30.05c4.802 0 8.423 3.995 8.423 9.294 0 4.554-2.739 8.095-9.064 13.885-.184.058-1.139.766-1.977-.075-.56-.563-.522-1.492.065-2.027 5.56-5.071 8.207-8.136 8.207-11.836h-2.768c0 2.228-1.578 4.468-6.39 8.941A12.338 12.338 0 0 0 24 31.244c-2.179 0-4.286.562-6.156 1.632-4.06-3.614-6.538-6.396-6.538-8.856H8.537c0 3.693 3.051 7.081 8.321 11.686.61.533.651 1.475.085 2.043-.865.868-2.004.055-1.995.054-5.667-4.977-9.18-8.924-9.18-13.73 0-5.299 3.622-9.295 8.424-9.295 4.357 0 6.705 3.454 7.781 5.74a5.564 5.564 0 0 0-3.51 5.17c0 3.063 2.484 5.556 5.537 5.556s5.538-2.493 5.538-5.557a5.564 5.564 0 0 0-3.511-5.17c1.076-2.285 3.424-5.739 7.78-5.739ZM11.5 0c-1.472 0-2.858.642-3.904 1.808C6.567 2.956 6 4.463 6 6.05 6 9.33 8.467 12 11.5 12S17 9.33 17 6.05c0-1.587-.567-3.094-1.596-4.242C14.358.642 12.972 0 11.5 0Zm0 9.025c-1.516 0-2.75-1.335-2.75-2.975 0-1.667 1.26-3.075 2.75-3.075s2.75 1.408 2.75 3.075c0 1.64-1.234 2.975-2.75 2.975ZM42 6.05c0-1.587-.567-3.094-1.596-4.242C39.358.642 37.97 0 36.5 0s-2.858.642-3.904 1.808C31.567 2.956 31 4.463 31 6.05 31 9.33 33.467 12 36.5 12S42 9.33 42 6.05Zm-8.25 0c0-1.667 1.26-3.075 2.75-3.075s2.75 1.408 2.75 3.075c0 1.64-1.234 2.975-2.75 2.975S33.75 7.69 33.75 6.05Z"/></g></svg>