<svg width="768" height="307" fill="none" xmlns="http://www.w3.org/2000/svg"><g opacity=".1"><mask id="a" style="mask-type:alpha" maskUnits="userSpaceOnUse" x="0" y="0" width="768" height="307"><path transform="rotate(90 768 0)" fill="#042925" d="M768 0h307v768H768z"/></mask><g mask="url(#a)" fill="#F7F7F7"><path d="M452.976 443.646c-66.944.823-120.508-33.299-172.317-66.285-51.404-32.744-104.585-66.625-170.596-65.814-66.033.812-117.958 35.96-168.17 69.953-26.907 18.214-54.737 37.055-84.486 50.475l-1.306-3.408c29.485-13.318 57.205-32.059 84.002-50.222C-9.29 344.1 43.03 308.677 109.975 307.854c66.944-.823 120.507 33.299 172.316 66.285 51.405 32.744 104.586 66.625 170.597 65.813 66.01-.811 117.958-35.959 168.169-69.977 50.608-34.245 102.928-69.668 169.872-70.491l.066 3.694c-66.033.812-117.958 35.959-168.169 69.977-50.585 34.245-102.928 69.669-169.85 70.491Z"/><path d="M452.976 419.646c-66.944.823-120.507-33.293-172.317-66.298-51.404-32.738-104.585-66.613-170.596-65.801-66.033.811-117.958 35.953-168.17 69.965-26.907 18.211-54.736 37.048-84.486 50.467l-1.306-3.408c29.485-13.316 57.205-32.078 84.002-50.214 50.607-34.263 102.928-69.68 169.872-70.503 66.944-.823 120.507 33.293 172.317 66.297 51.404 32.739 104.585 66.613 170.596 65.802 66.01-.811 117.958-35.953 168.17-69.966 50.607-34.263 102.927-69.68 169.871-70.503l.066 3.693c-66.033.812-117.958 35.953-168.169 69.966-50.585 34.263-102.928 69.681-169.85 70.503Z"/><path d="M452.976 394.646c-66.944.823-120.507-33.299-172.316-66.285-51.405-32.745-104.586-66.625-170.597-65.814-66.033.812-117.958 35.96-168.17 69.953-26.907 18.214-54.736 37.055-84.486 50.475l-1.306-3.408c29.485-13.318 57.205-32.059 84.002-50.222C-9.29 295.1 43.03 259.676 109.975 258.854c66.944-.823 120.507 33.299 172.316 66.285 51.405 32.744 104.586 66.624 170.597 65.813 66.011-.811 117.958-35.959 168.169-69.978 50.608-34.244 102.928-69.668 169.872-70.491l.066 3.694c-66.033.812-117.958 35.96-168.169 69.978-50.585 34.244-102.928 69.668-169.85 70.491Z"/><path d="M451.976 371.646c-66.944.823-120.508-33.305-172.317-66.297-51.405-32.75-104.586-66.637-170.596-65.826-66.033.812-117.958 35.966-168.17 69.965-26.907 18.217-54.737 37.061-84.486 50.484l-1.305-3.384c29.484-13.321 57.204-32.065 84-50.231 50.608-34.251 102.929-69.68 169.873-70.503 66.944-.823 120.507 33.305 172.317 66.297 51.404 32.75 104.585 66.637 170.596 65.825 66.011-.811 117.958-35.965 168.169-69.989 50.608-34.251 102.928-69.68 169.872-70.503l.066 3.695c-66.033.811-117.958 35.965-168.169 69.989-50.586 34.226-102.928 69.656-169.85 70.478Z"/><path d="M451.976 346.646c-66.944.823-120.508-33.299-172.317-66.285-51.404-32.744-104.585-66.6-170.596-65.789-66.032.812-117.958 35.959-168.17 69.953-26.907 18.214-54.736 37.054-84.485 50.475l-1.307-3.433c29.485-13.318 57.205-32.059 84.002-50.222C-10.29 247.1 42.03 211.677 108.975 210.854c66.944-.823 120.507 33.299 172.316 66.285 51.405 32.744 104.586 66.6 170.596 65.789 66.011-.812 117.958-35.959 168.17-69.953 50.607-34.269 102.928-69.668 169.872-70.491l.066 3.694c-66.033.812-117.958 35.959-168.17 69.953-50.584 34.269-102.927 69.693-169.849 70.515Z"/><path d="M451.976 322.646c-66.944.823-120.508-33.299-172.317-66.285-51.404-32.744-104.585-66.625-170.596-65.814-66.033.812-117.958 35.96-168.17 69.953-26.951 18.239-54.781 37.08-84.508 50.5l-1.284-3.433c29.485-13.318 57.205-32.059 84.002-50.222C-10.29 223.1 42.03 187.677 108.975 186.854c66.944-.823 120.507 33.299 172.316 66.285 51.405 32.744 104.586 66.625 170.597 65.813 66.01-.811 117.958-35.959 168.169-69.977 50.608-34.245 102.928-69.668 169.872-70.491l.066 3.694c-66.033.812-117.958 35.959-168.169 69.977-50.585 34.245-102.928 69.669-169.85 70.491Z"/><path d="M450.976 297.646c-66.944.823-120.508-33.299-172.317-66.285-51.404-32.744-104.585-66.6-170.596-65.789-66.032.812-117.958 35.959-168.17 69.953-26.907 18.214-54.736 37.054-84.485 50.475l-1.307-3.433c29.485-13.318 57.205-32.059 84.002-50.222C-11.29 198.1 41.03 162.677 107.975 161.854c66.944-.823 120.507 33.299 172.316 66.285 51.405 32.744 104.586 66.6 170.596 65.789 66.011-.811 117.958-35.959 168.17-69.953 50.607-34.269 102.928-69.668 169.872-70.491l.066 3.694c-66.033.812-117.958 35.959-168.17 69.953-50.584 34.269-102.927 69.693-169.849 70.515Z"/><path d="M450.976 274.646c-66.944.823-120.507-33.299-172.316-66.285-51.405-32.745-104.586-66.625-170.597-65.814-66.033.812-117.958 35.96-168.17 69.953-26.907 18.214-54.736 37.055-84.486 50.475l-1.306-3.408c29.485-13.318 57.205-32.059 84.002-50.222C-11.29 175.1 41.03 139.676 107.975 138.854c66.944-.823 120.507 33.299 172.316 66.285 51.405 32.744 104.586 66.624 170.597 65.813 66.011-.811 117.958-35.959 168.169-69.978 50.608-34.244 102.928-69.668 169.872-70.491l.066 3.694c-66.033.812-117.958 35.96-168.169 69.978-50.585 34.244-102.928 69.668-169.85 70.491Z"/><path d="M450.976 250.646c-66.944.823-120.508-33.299-172.317-66.285-51.404-32.744-104.585-66.625-170.596-65.813-66.033.811-117.958 35.959-168.17 69.952-26.907 18.214-54.737 37.055-84.486 50.475l-1.306-3.408c29.485-13.318 57.205-32.059 84.002-50.222C-11.29 151.1 41.03 115.677 107.975 114.854c66.944-.823 120.507 33.299 172.316 66.285 51.405 32.745 104.586 66.625 170.597 65.814 66.01-.812 117.958-35.96 168.169-69.978 50.608-34.244 102.928-69.668 169.872-70.491l.066 3.694c-66.033.812-117.958 35.96-168.169 69.978-50.586 34.244-102.928 69.668-169.85 70.49Z"/><path d="M449.976 225.646c-66.944.823-120.508-33.305-172.317-66.297-51.405-32.75-104.585-66.612-170.596-65.8-66.033.81-117.958 35.964-168.17 69.964-26.907 18.217-54.736 37.061-84.485 50.483l-1.306-3.408c29.484-13.321 57.204-32.09 84-50.231 50.608-34.251 102.929-69.68 169.873-70.503 66.944-.823 120.507 33.305 172.317 66.297 51.404 32.75 104.585 66.612 170.596 65.801 66.01-.812 117.958-35.966 168.169-69.965 50.607-34.275 102.928-69.68 169.872-70.503l.066 3.694c-66.033.812-117.958 35.966-168.169 69.965-50.585 34.251-102.928 69.681-169.85 70.503Z"/><path d="M449.976 201.646c-66.944.823-120.508-33.299-172.317-66.285-51.404-32.744-104.585-66.625-170.596-65.813-66.033.811-117.958 35.959-168.17 69.952-26.907 18.214-54.737 37.055-84.486 50.475l-1.306-3.408c29.485-13.318 57.204-32.084 84.002-50.222C-12.29 102.1 40.03 66.677 106.975 65.854c66.944-.823 120.507 33.3 172.316 66.285 51.405 32.745 104.586 66.625 170.597 65.814 66.01-.812 117.958-35.96 168.169-69.978 50.608-34.244 102.928-69.668 169.872-70.49l.066 3.693c-66.033.812-117.958 35.96-168.169 69.978-50.586 34.244-102.928 69.668-169.85 70.49Z"/><path d="M448.976 177.646c-66.944.823-120.507-33.299-172.317-66.285-51.404-32.745-104.585-66.6-170.596-65.789-66.032.812-117.958 35.96-168.17 69.953-26.906 18.214-54.736 37.054-84.485 50.475l-1.307-3.433c29.485-13.318 57.205-32.059 84.002-50.222C-13.29 78.1 39.03 42.677 105.975 41.854c66.944-.823 120.507 33.299 172.316 66.285 51.405 32.744 104.586 66.6 170.596 65.789 66.011-.812 117.958-35.96 168.17-69.953 50.608-34.245 102.928-69.668 169.872-70.491l.066 3.694c-66.033.811-117.958 35.959-168.17 69.953-50.584 34.269-102.927 69.692-169.849 70.515Z"/><path d="M448.976 153.646c-66.944.823-120.507-33.299-172.316-66.285-51.405-32.745-104.586-66.625-170.597-65.814C40.03 22.36-11.895 57.507-62.107 91.5c-26.907 18.214-54.736 37.055-84.486 50.475l-1.306-3.408c29.485-13.318 57.205-32.084 84.002-50.222C-13.29 54.1 39.03 18.676 105.975 17.853c66.944-.822 120.507 33.3 172.316 66.285 51.405 32.745 104.586 66.625 170.597 65.814 66.011-.812 117.958-35.959 168.169-69.978 50.607-34.27 102.928-69.668 169.872-70.491l.066 3.694c-66.033.812-117.958 35.96-168.169 69.978-50.585 34.244-102.928 69.668-169.85 70.491Z"/><path d="M448.976 128.646c-66.944.823-120.507-33.3-172.317-66.285C225.255 29.616 172.074-4.264 106.063-3.453 40.03-2.64-11.895 32.507-62.107 66.525c-26.951 18.19-54.781 37.03-84.508 50.45l-1.284-3.408c29.485-13.318 57.205-32.06 84.002-50.222C-13.29 29.1 39.03-6.324 105.975-7.146c66.944-.823 120.507 33.299 172.316 66.285 51.405 32.744 104.586 66.6 170.596 65.789 66.011-.812 117.959-35.96 168.17-69.953 50.607-34.27 102.928-69.669 169.872-70.492l.066 3.694c-66.033.812-117.958 35.96-168.169 69.978-50.585 34.245-102.928 69.668-169.85 70.491Z"/><path d="M447.976 104.646c-66.944.823-120.508-33.305-172.317-66.297-51.405-32.75-104.585-66.612-170.596-65.8-66.033.81-117.958 35.964-168.17 69.964-26.907 18.217-54.736 37.06-84.485 50.483l-1.306-3.408c29.484-13.321 57.204-32.065 84-50.231C-14.29 5.082 38.032-30.323 104.976-31.146c66.944-.823 120.507 33.305 172.317 66.297 51.404 32.75 104.586 66.637 170.596 65.825 66.011-.811 117.958-35.965 168.169-69.99 50.607-34.274 102.928-69.68 169.872-70.502l.066 3.694C719.962-35.01 668.037.144 617.826 34.143c-50.585 34.275-102.928 69.681-169.85 70.503Z"/><path d="M447.976 81.646c-66.944.823-120.507-33.3-172.317-66.285-51.404-32.745-104.585-66.6-170.596-65.789-66.032.812-117.958 35.96-168.17 69.953C-90.012 37.739-117.842 56.579-147.591 70l-1.307-3.433c29.485-13.318 57.205-32.06 84.002-50.222C-14.29-17.9 38.03-53.323 104.975-54.146c66.944-.823 120.507 33.299 172.316 66.285 51.405 32.744 104.586 66.6 170.596 65.789 66.011-.812 117.958-35.96 168.17-69.953 50.608-34.245 102.928-69.668 169.872-70.491l.066 3.694c-66.033.811-117.958 35.959-168.17 69.953C567.241 45.4 514.898 80.823 447.976 81.646Z"/><path d="M447.976 56.646c-66.944.823-120.507-33.3-172.317-66.285-51.404-32.745-104.585-66.6-170.596-65.789-66.032.812-117.958 35.96-168.17 69.953C-90.012 12.739-117.842 31.579-147.591 45l-1.307-3.432c29.485-13.32 57.204-32.085 84.002-50.223C-14.29-42.9 38.03-78.323 104.975-79.146c66.944-.823 120.507 33.299 172.316 66.285 51.405 32.744 104.586 66.6 170.596 65.789 66.011-.812 117.958-35.96 168.17-69.953 50.607-34.27 102.928-69.668 169.872-70.491l.066 3.694c-66.033.811-117.958 35.96-168.17 69.953C567.241 20.4 514.898 55.824 447.976 56.646Z"/><path d="M447.976 32.646c-66.944.823-120.507-33.3-172.317-66.285-51.404-32.745-104.585-66.6-170.596-65.789-66.032.812-117.958 35.96-168.17 69.953C-90.012-11.261-117.842 7.579-147.591 21l-1.307-3.433c29.485-13.318 57.205-32.06 84.002-50.222C-14.29-66.9 38.03-102.323 104.975-103.146c66.944-.823 120.507 33.299 172.316 66.285 51.405 32.744 104.586 66.6 170.596 65.789 66.011-.812 117.958-35.96 168.17-69.953 50.607-34.27 102.928-69.668 169.872-70.491l.066 3.694c-66.033.811-117.958 35.959-168.17 69.953C567.241-3.6 514.898 31.823 447.976 32.646Z"/><path d="M447.976 7.646c-66.944.823-120.507-33.3-172.317-66.285-51.404-32.745-104.585-66.6-170.596-65.789-66.032.812-117.958 35.96-168.17 69.953C-90.012-36.261-117.842-17.421-147.591-4l-1.307-3.433c29.485-13.318 57.205-32.06 84.002-50.222C-14.29-91.9 38.03-127.324 104.975-128.146c66.944-.823 120.507 33.299 172.316 66.285C328.696-29.117 381.877 4.764 447.888 3.952c66.011-.811 117.958-35.96 168.169-69.977 50.607-34.27 102.928-69.669 169.872-70.492l.066 3.694c-66.033.812-117.958 35.96-168.17 69.953C567.241-28.6 514.898 6.823 447.976 7.646Z"/></g></g></svg>