<svg width="360" height="311" fill="none" xmlns="http://www.w3.org/2000/svg"><g opacity=".1"><mask id="a" style="mask-type:alpha" maskUnits="userSpaceOnUse" x="0" y="0" width="360" height="311"><path transform="rotate(90 360 0)" fill="#042925" d="M360 0h311v360H360z"/></mask><g mask="url(#a)" fill="#F7F7F7"><path d="M262.917 389.82c-36.652.468-65.973-18.536-94.334-36.907-28.14-18.236-57.252-37.105-93.392-36.644-36.152.462-64.585 20.051-92.079 38.998-14.733 10.151-29.972 20.652-46.26 28.134l-.715-1.899c16.144-7.424 31.322-17.87 45.995-27.993 27.711-19.086 56.36-38.83 93.011-39.298 36.651-.468 65.973 18.536 94.334 36.907 28.139 18.236 57.252 37.105 93.392 36.644 36.14-.461 64.584-20.051 92.078-39.012 27.711-19.086 56.36-38.83 93.011-39.298l.036 2.059c-36.152.461-64.585 20.051-92.079 39.011-27.698 19.087-56.359 38.83-92.998 39.298Z"/><path d="M262.917 376.82c-36.652.468-65.973-18.532-94.334-36.914-28.14-18.233-57.252-37.099-93.392-36.637-36.152.461-64.585 20.048-92.079 39.005-14.733 10.149-29.971 20.649-46.26 28.129l-.715-1.898c16.144-7.424 31.322-17.881 45.995-27.989 27.711-19.097 56.36-38.837 93.011-39.305 36.651-.468 65.973 18.533 94.334 36.914 28.14 18.233 57.252 37.099 93.392 36.637 36.14-.461 64.584-20.048 92.079-39.005 27.71-19.097 56.359-38.837 93.01-39.305l.036 2.058c-36.152.462-64.585 20.048-92.079 39.005-27.698 19.097-56.359 38.837-92.998 39.305Z"/><path d="M262.917 363.82c-36.651.467-65.973-18.536-94.334-36.907-28.14-18.236-57.252-37.105-93.392-36.644-36.152.461-64.585 20.051-92.079 38.998-14.733 10.151-29.971 20.652-46.26 28.134l-.715-1.899c16.144-7.424 31.322-17.87 45.995-27.993 27.711-19.087 56.36-38.83 93.011-39.298 36.651-.468 65.973 18.536 94.334 36.907 28.14 18.236 57.252 37.105 93.392 36.644 36.14-.462 64.585-20.052 92.078-39.012 27.711-19.087 56.36-38.83 93.011-39.298l.036 2.058c-36.152.462-64.585 20.051-92.079 39.012-27.698 19.086-56.359 38.83-92.998 39.298Z"/><path d="M262.917 349.82c-36.652.468-65.973-18.539-94.334-36.913-28.14-18.24-57.252-37.113-93.392-36.651-36.152.461-64.585 20.054-92.079 39.004-14.733 10.153-29.972 20.656-46.26 28.139l-.715-1.885c16.144-7.426 31.323-17.873 45.995-27.998 27.711-19.09 56.36-38.837 93.011-39.305 36.651-.468 65.973 18.539 94.334 36.913 28.14 18.24 57.252 37.113 93.392 36.651 36.14-.461 64.585-20.054 92.078-39.018 27.711-19.09 56.36-38.837 93.011-39.305l.036 2.059c-36.152.461-64.585 20.055-92.079 39.018-27.698 19.076-56.359 38.823-92.998 39.291Z"/><path d="M263.917 336.368c-36.652.467-65.973-18.536-94.334-36.907-28.14-18.237-57.251-37.092-93.392-36.631-36.152.462-64.584 20.052-92.079 38.998-14.733 10.152-29.971 20.653-46.26 28.134l-.715-1.912c16.144-7.425 31.322-17.87 45.995-27.993 27.711-19.087 56.36-38.83 93.011-39.298 36.651-.468 65.973 18.536 94.334 36.906 28.139 18.237 57.251 37.092 93.391 36.631 36.141-.461 64.585-20.051 92.079-38.998 27.711-19.1 56.36-38.83 93.011-39.298l.036 2.058c-36.152.462-64.585 20.051-92.079 38.998-27.698 19.1-56.359 38.844-92.998 39.312Z"/><path d="M262.917 323.82c-36.652.468-65.973-18.536-94.334-36.907-28.14-18.236-57.252-37.105-93.392-36.644-36.152.462-64.585 20.051-92.079 38.998-14.757 10.165-29.996 20.666-46.272 28.148l-.703-1.913c16.144-7.424 31.322-17.87 45.995-27.993 27.711-19.086 56.36-38.83 93.011-39.298 36.651-.468 65.973 18.536 94.334 36.907 28.139 18.236 57.252 37.105 93.392 36.644 36.14-.461 64.584-20.051 92.078-39.012 27.711-19.086 56.36-38.83 93.011-39.298l.036 2.059c-36.152.461-64.585 20.051-92.079 39.011-27.698 19.087-56.359 38.83-92.998 39.298Z"/><path d="M261.917 308.82c-36.652.468-65.973-18.536-94.334-36.907-28.14-18.236-57.251-37.091-93.392-36.63-36.152.461-64.584 20.051-92.079 38.998-14.733 10.151-29.971 20.652-46.26 28.134l-.715-1.913c16.144-7.424 31.322-17.87 45.995-27.993 27.711-19.086 56.36-38.83 93.011-39.298 36.651-.468 65.973 18.536 94.334 36.907 28.139 18.236 57.251 37.092 93.391 36.63 36.141-.461 64.585-20.051 92.079-38.998 27.711-19.1 56.36-38.83 93.011-39.298l.036 2.059c-36.152.461-64.585 20.051-92.079 38.997-27.698 19.101-56.359 38.844-92.998 39.312Z"/><path d="M261.917 295.82c-36.651.467-65.973-18.536-94.334-36.907-28.14-18.236-57.252-37.105-93.392-36.644-36.152.461-64.584 20.051-92.079 38.998-14.733 10.151-29.971 20.652-46.26 28.134l-.715-1.899c16.144-7.424 31.322-17.87 45.995-27.993 27.711-19.087 56.36-38.83 93.011-39.298 36.651-.468 65.973 18.536 94.334 36.907 28.14 18.236 57.252 37.105 93.392 36.644 36.14-.462 64.585-20.052 92.078-39.012 27.711-19.087 56.36-38.83 93.011-39.298l.036 2.058c-36.152.462-64.585 20.051-92.079 39.012-27.698 19.086-56.359 38.83-92.998 39.298Z"/><path d="M261.917 282.82c-36.652.468-65.973-18.536-94.334-36.907-28.14-18.236-57.252-37.105-93.392-36.644-36.152.462-64.585 20.051-92.079 38.998-14.733 10.151-29.972 20.652-46.26 28.134l-.715-1.899c16.144-7.424 31.322-17.87 45.995-27.993 27.711-19.086 56.36-38.83 93.011-39.298 36.651-.468 65.973 18.536 94.334 36.907 28.139 18.236 57.252 37.105 93.392 36.644 36.14-.461 64.584-20.051 92.078-39.011 27.711-19.087 56.36-38.831 93.011-39.298l.036 2.058c-36.152.461-64.585 20.051-92.079 39.011-27.698 19.087-56.359 38.83-92.998 39.298Z"/><path d="M261.917 268.82c-36.652.468-65.973-18.539-94.334-36.913-28.14-18.24-57.252-37.099-93.392-36.638-36.152.462-64.584 20.055-92.079 39.005-14.733 10.153-29.971 20.656-46.26 28.139l-.715-1.899c16.144-7.426 31.322-17.887 45.995-27.998 27.711-19.09 56.36-38.837 93.011-39.305 36.651-.468 65.973 18.539 94.334 36.913 28.14 18.24 57.252 37.099 93.392 36.638 36.14-.462 64.584-20.055 92.078-39.005 27.711-19.104 56.36-38.837 93.011-39.305l.036 2.059c-36.152.461-64.585 20.055-92.079 39.004-27.698 19.09-56.359 38.837-92.998 39.305Z"/><path d="M261.917 255.82c-36.652.468-65.973-18.536-94.334-36.907-28.14-18.236-57.252-37.105-93.392-36.644-36.152.462-64.585 20.051-92.079 38.998-14.733 10.151-29.972 20.652-46.26 28.134l-.715-1.899c16.144-7.424 31.322-17.883 45.995-27.993 27.711-19.086 56.36-38.83 93.011-39.298 36.651-.468 65.973 18.536 94.334 36.907 28.139 18.236 57.252 37.105 93.392 36.644 36.14-.461 64.584-20.051 92.078-39.011 27.711-19.087 56.36-38.831 93.011-39.298l.036 2.058c-36.152.461-64.585 20.051-92.079 39.011-27.698 19.087-56.359 38.83-92.998 39.298Z"/><path d="M260.917 241.82c-36.652.468-65.973-18.536-94.334-36.907-28.14-18.236-57.251-37.091-93.392-36.63-36.152.461-64.584 20.051-92.079 38.998-14.733 10.151-29.971 20.652-46.26 28.134l-.715-1.913c16.144-7.424 31.322-17.87 45.995-27.993 27.711-19.086 56.36-38.83 93.011-39.298 36.651-.468 65.973 18.536 94.334 36.907 28.139 18.236 57.251 37.092 93.391 36.63 36.141-.461 64.585-20.051 92.079-38.998 27.711-19.086 56.36-38.83 93.011-39.298l.036 2.058c-36.152.462-64.585 20.052-92.079 38.998-27.698 19.1-56.359 38.844-92.998 39.312Z"/><path d="M260.917 228.82c-36.651.467-65.973-18.536-94.334-36.907-28.14-18.236-57.252-37.105-93.392-36.644-36.152.461-64.584 20.051-92.079 38.998-14.733 10.151-29.971 20.652-46.26 28.134l-.715-1.899c16.144-7.424 31.322-17.883 45.995-27.993 27.711-19.087 56.36-38.83 93.011-39.298 36.651-.468 65.973 18.536 94.334 36.907 28.14 18.236 57.252 37.105 93.392 36.644 36.14-.462 64.585-20.052 92.078-39.012 27.711-19.1 56.36-38.83 93.011-39.298l.036 2.058c-36.152.462-64.585 20.051-92.079 39.012-27.698 19.086-56.359 38.83-92.998 39.298Z"/><path d="M260.917 214.82c-36.652.468-65.973-18.536-94.334-36.907-28.14-18.236-57.252-37.105-93.392-36.644-36.152.462-64.585 20.051-92.079 39.012-14.757 10.138-29.996 20.639-46.273 28.12l-.702-1.899c16.144-7.424 31.322-17.87 45.995-27.993 27.711-19.086 56.36-38.83 93.011-39.298 36.651-.468 65.973 18.536 94.334 36.907 28.139 18.236 57.251 37.092 93.391 36.63 36.141-.461 64.585-20.051 92.079-38.998 27.711-19.1 56.36-38.83 93.011-39.298l.036 2.059c-36.152.461-64.585 20.051-92.079 39.011-27.698 19.087-56.359 38.83-92.998 39.298Z"/><path d="M260.917 201.82c-36.652.468-65.973-18.539-94.334-36.913-28.14-18.24-57.252-37.099-93.392-36.638-36.152.462-64.584 20.055-92.079 39.005-14.733 10.153-29.971 20.656-46.26 28.139l-.715-1.899c16.144-7.426 31.323-17.873 45.995-27.998 27.711-19.104 56.36-38.837 93.011-39.305 36.651-.468 65.973 18.539 94.334 36.913 28.14 18.24 57.252 37.113 93.392 36.651 36.14-.461 64.585-20.054 92.078-39.018 27.711-19.103 56.36-38.837 93.011-39.305l.036 2.059c-36.152.461-64.585 20.055-92.079 39.004-27.698 19.104-56.359 38.837-92.998 39.305Z"/><path d="M260.917 188.82c-36.652.468-65.973-18.536-94.334-36.907-28.14-18.236-57.251-37.091-93.392-36.63-36.152.461-64.584 20.051-92.079 38.998-14.733 10.151-29.971 20.652-46.26 28.134l-.715-1.913c16.144-7.424 31.322-17.87 45.995-27.993 27.711-19.086 56.36-38.83 93.011-39.298 36.651-.468 65.973 18.536 94.334 36.907 28.139 18.236 57.251 37.092 93.391 36.63 36.141-.461 64.585-20.051 92.079-38.998 27.711-19.086 56.36-38.83 93.011-39.297l.036 2.058c-36.152.461-64.585 20.051-92.079 38.997-27.698 19.101-56.359 38.844-92.998 39.312Z"/><path d="M260.917 174.82c-36.652.468-65.973-18.536-94.334-36.907-28.14-18.236-57.251-37.091-93.392-36.63-36.152.461-64.584 20.051-92.079 38.998-14.733 10.151-29.971 20.652-46.26 28.134l-.715-1.913c16.144-7.424 31.322-17.883 45.995-27.993 27.711-19.086 56.36-38.83 93.011-39.298 36.651-.468 65.973 18.536 94.334 36.907 28.139 18.236 57.251 37.092 93.391 36.63 36.141-.461 64.585-20.051 92.079-38.998 27.711-19.1 56.36-38.83 93.011-39.298l.036 2.058c-36.152.462-64.585 20.052-92.079 38.998-27.698 19.101-56.359 38.844-92.998 39.312Z"/><path d="M259.917 161.82c-36.652.468-65.973-18.536-94.334-36.907-28.14-18.236-57.251-37.091-93.392-36.63-36.152.461-64.584 20.051-92.079 38.998-14.733 10.151-29.971 20.652-46.26 28.134l-.715-1.913c16.144-7.424 31.322-17.87 45.995-27.993 27.711-19.086 56.36-38.83 93.011-39.298 36.651-.468 65.973 18.536 94.334 36.907 28.139 18.236 57.251 37.092 93.391 36.63 36.141-.461 64.585-20.051 92.079-38.998 27.711-19.1 56.36-38.83 93.011-39.298l.036 2.058c-36.152.462-64.585 20.052-92.079 38.998-27.698 19.1-56.359 38.844-92.998 39.312Z"/><path d="M259.917 148.82c-36.652.468-65.973-18.536-94.334-36.907-28.14-18.236-57.251-37.091-93.392-36.63-36.152.461-64.584 20.051-92.079 38.998-14.733 10.151-29.971 20.652-46.26 28.134l-.715-1.913c16.144-7.424 31.322-17.87 45.995-27.993 27.711-19.087 56.36-38.83 93.011-39.298 36.651-.468 65.973 18.536 94.334 36.907 28.14 18.236 57.252 37.105 93.392 36.644 36.14-.461 64.584-20.051 92.078-39.012 27.711-19.1 56.36-38.83 93.011-39.298l.036 2.058c-36.152.462-64.585 20.052-92.079 38.998-27.698 19.1-56.359 38.844-92.998 39.312Z"/><path d="M259.917 134.82c-36.652.468-65.973-18.536-94.334-36.907-28.14-18.236-57.251-37.091-93.392-36.63-36.14.461-64.584 20.051-92.079 38.998-14.733 10.151-29.971 20.652-46.26 28.134l-.715-1.913c16.144-7.424 31.322-17.87 45.995-27.993 27.711-19.086 56.36-38.83 93.011-39.298 36.651-.468 65.973 18.536 94.334 36.907 28.139 18.236 57.252 37.105 93.392 36.644 36.14-.461 64.584-20.051 92.078-39.011 27.711-19.087 56.36-38.83 93.011-39.298l.036 2.058c-36.152.461-64.585 20.051-92.079 38.998-27.698 19.1-56.359 38.843-92.998 39.311Z"/><path d="M259.917 121.82c-36.652.468-65.973-18.539-94.334-36.913-28.14-18.24-57.252-37.099-93.392-36.638-36.152.462-64.584 20.055-92.079 39.005-14.733 10.153-29.971 20.656-46.26 28.139l-.715-1.899c16.144-7.426 31.323-17.873 45.996-27.998 27.71-19.09 56.36-38.837 93.01-39.305 36.651-.468 65.973 18.54 94.334 36.913 28.14 18.24 57.252 37.113 93.392 36.651 36.14-.461 64.585-20.055 92.079-39.018 27.71-19.09 56.359-38.837 93.01-39.305l.036 2.059c-36.152.461-64.585 20.054-92.079 39.004-27.698 19.09-56.359 38.837-92.998 39.305Z"/><path d="M259.917 108.82c-36.652.468-65.973-18.536-94.334-36.907-28.14-18.236-57.251-37.091-93.392-36.63-36.152.461-64.584 20.051-92.079 38.998-14.757 10.151-29.996 20.652-46.272 28.134l-.703-1.913c16.144-7.424 31.322-17.87 45.995-27.993 27.711-19.086 56.36-38.83 93.011-39.298 36.651-.468 65.973 18.536 94.334 36.907 28.139 18.236 57.251 37.092 93.391 36.63 36.141-.461 64.585-20.05 92.079-38.998 27.711-19.1 56.36-38.83 93.011-39.297l.036 2.058c-36.152.461-64.585 20.051-92.079 38.998-27.698 19.1-56.359 38.843-92.998 39.311Z"/><path d="M259.917 95.82c-36.651.468-65.973-18.536-94.334-36.907-28.14-18.236-57.251-37.092-93.392-36.63-36.152.461-64.584 20.051-92.078 38.998-14.758 10.151-29.997 20.652-46.273 28.134l-.703-1.913c16.144-7.424 31.322-17.883 45.995-27.993 27.711-19.087 56.36-38.83 93.011-39.298 36.651-.468 65.973 18.536 94.334 36.907 28.14 18.236 57.251 37.091 93.392 36.63 36.14-.461 64.584-20.051 92.078-38.998 27.711-19.086 56.36-38.83 93.011-39.298l.036 2.058c-36.152.462-64.585 20.052-92.079 38.998-27.698 19.1-56.359 38.844-92.998 39.312Z"/><path d="M259.917 81.82c-36.652.468-65.973-18.536-94.334-36.907-28.14-18.236-57.251-37.092-93.392-36.63C36.04 8.744 7.607 28.334-19.888 47.28-34.645 57.432-49.883 67.933-66.16 75.415l-.703-1.913c16.144-7.424 31.322-17.87 45.995-27.993C6.843 26.422 35.492 6.68 72.143 6.211c36.651-.468 65.973 18.536 94.334 36.907 28.14 18.236 57.251 37.092 93.391 36.63 36.141-.461 64.585-20.051 92.079-38.998 27.711-19.1 56.36-38.83 93.011-39.298l.036 2.058c-36.152.462-64.585 20.052-92.079 38.998-27.698 19.1-56.359 38.844-92.998 39.312Z"/><path d="M259.917 68.82c-36.652.468-65.973-18.536-94.334-36.907-28.14-18.236-57.252-37.105-93.392-36.644C36.04-4.269 7.607 15.32-19.888 34.267-34.645 44.419-49.884 54.92-66.16 62.401l-.702-1.899c16.144-7.424 31.322-17.87 45.995-27.993C6.843 13.422 35.492-6.32 72.143-6.789c36.651-.468 65.973 18.536 94.334 36.907 28.139 18.236 57.251 37.092 93.391 36.63 36.141-.461 64.585-20.051 92.079-38.998 27.711-19.086 56.36-38.83 93.011-39.298l.036 2.058c-36.152.462-64.585 20.052-92.079 39.012-27.698 19.087-56.359 38.83-92.998 39.298Z"/><path d="M258.917 54.82c-36.651.468-65.973-18.536-94.334-36.907-28.14-18.236-57.252-37.105-93.392-36.644C35.04-18.269 6.607 1.32-20.888 20.267-35.645 30.419-50.884 40.92-67.16 48.4l-.702-1.899c16.144-7.424 31.322-17.87 45.995-27.993C5.843-.577 34.492-20.32 71.143-20.789c36.651-.468 65.973 18.536 94.334 36.907 28.14 18.236 57.252 37.105 93.392 36.644 36.14-.462 64.584-20.051 92.078-39.012 27.711-19.086 56.36-38.83 93.011-39.298l.036 2.058c-36.152.462-64.585 20.052-92.079 39.012-27.698 19.086-56.359 38.83-92.998 39.298Z"/><path d="M258.917 41.82c-36.652.468-65.973-18.536-94.334-36.907-28.14-18.236-57.251-37.091-93.392-36.63C35.04-31.256 6.607-11.666-20.888 7.28-35.645 17.433-50.883 27.933-67.16 35.415l-.703-1.899c16.144-7.425 31.322-17.884 45.996-27.993 27.71-19.1 56.36-38.844 93.01-39.312 36.651-.468 65.973 18.536 94.334 36.907 28.14 18.236 57.251 37.091 93.391 36.63 36.141-.461 64.585-20.051 92.079-38.998 27.711-19.1 56.36-38.83 93.011-39.298l.036 2.058c-36.152.462-64.585 20.052-92.079 38.998-27.698 19.1-56.359 38.844-92.998 39.312Z"/><path d="M259.634 26.242c-36.656.456-65.973-18.106-94.33-36.064-15.126-9.557-30.756-19.456-47.271-26.302l.636-1.884c16.663 6.91 32.355 16.849 47.53 26.459 28.148 17.813 57.243 36.244 93.4 35.794 36.157-.45 64.601-19.583 92.106-38.089 14.835-9.997 30.188-20.322 46.604-27.644l.702 1.868c-16.271 7.253-31.551 17.537-46.339 27.48-27.722 18.642-56.395 37.926-93.038 38.382ZM-67.345 21.983l-.701-1.879c16.107-7.29 31.25-17.547 45.89-27.488C-7.348-17.408 7.952-27.79 24.325-35.15l.701 1.879C8.786-25.98-6.454-15.64-21.19-5.643c-14.712 9.969-29.915 20.28-46.155 27.626Z"/><path d="M258.917 13.549c-36.694.46-66.047-18.288-94.438-36.425-6.987-4.461-14.221-9.082-21.448-13.337l.846-1.798c7.252 4.268 14.497 8.889 21.497 13.364 28.169 17.99 57.313 36.606 93.507 36.152 36.194-.454 64.662-19.779 92.203-38.483 6.853-4.648 13.921-9.448 21.021-13.897l.908 1.776c-7.063 4.434-14.132 9.234-20.972 13.87-27.746 18.841-56.443 38.318-93.124 38.778ZM-67.586 7.985l-.707-1.861c16.241-7.228 31.512-17.395 46.274-27.236 6.884-4.587 14-9.324 21.133-13.727l.912 1.752c-7.11 4.377-14.212 9.1-21.085 13.687C-35.88-9.52-51.212.703-67.586 7.985Z"/><path d="M258.185.826c-36.581.457-65.847-18.608-94.154-37.051l.892-1.786c28.098 18.294 57.143 37.224 93.226 36.774 36.083-.451 64.461-20.085 91.901-39.073l.966 1.763C323.347-19.418 294.754.369 258.185.826Z"/></g></g></svg>