<svg width="645" height="1080" fill="none" xmlns="http://www.w3.org/2000/svg"><g opacity=".1"><mask id="a" style="mask-type:alpha" maskUnits="userSpaceOnUse" x="0" y="0" width="645" height="1080"><path fill="#042925" d="M0 0h645v1080H0z"/></mask><g mask="url(#a)" fill="#F7F7F7"><path d="M752.629-339.986c-12.455 36.644-30.371 71.155-47.669 104.528-32.11 61.901-65.334 125.887-64.515 205.412.818 79.524 35.32 142.092 68.69 202.596 18.002 32.634 36.62 66.406 49.824 102.487l-3.368 1.543c-13.08-35.789-31.624-69.402-49.552-101.931-33.64-60.979-68.389-124.024-69.219-204.646-.83-80.622 32.631-145.095 65.002-207.457 17.251-33.238 35.071-67.613 47.434-103.934l3.373 1.402ZM763.639 481.986c-12.456 36.629-30.371 71.124-47.694 104.482-32.11 61.847-65.334 125.832-64.516 205.321.818 79.488 35.32 142.028 68.689 202.504 17.879 32.407 36.374 65.927 49.551 101.747l-3.319 1.54c-13.078-35.5-31.474-68.89-49.304-101.162-33.615-60.952-68.388-123.968-69.217-204.554-.83-80.586 32.631-145.03 64.978-207.364 17.252-33.223 35.096-67.583 47.435-103.888l3.397 1.374Z"/><path d="M758.48 380.011c.841 80.592-33.513 145.051-66.724 207.398-32.968 61.861-67.079 125.86-66.25 205.328.829 79.495 36.235 142.03 70.479 202.502 18.347 32.401 37.327 65.921 50.848 101.741l-3.432 1.57c-13.419-35.5-32.297-68.89-50.594-101.158-34.497-60.948-70.181-123.96-71.021-204.552-.841-80.592 33.514-145.05 66.724-207.398 32.968-61.86 67.079-125.859 66.251-205.327-.829-79.468-36.236-142.03-70.504-202.502-34.497-60.948-70.181-123.96-71.021-204.552l3.72-.076c.829 79.494 36.235 142.03 70.504 202.501 34.496 60.922 70.18 123.96 71.02 204.525Z"/><path d="M734.48 380.011c.841 80.592-33.507 145.051-66.737 207.399-32.962 61.86-67.067 125.859-66.238 205.327.829 79.495 36.229 142.03 70.492 202.502 18.344 32.401 37.32 65.921 50.839 101.741l-3.431 1.57c-13.416-35.5-32.317-68.89-50.585-101.158-34.516-60.948-70.193-123.96-71.034-204.552-.841-80.592 33.508-145.05 66.737-207.398 32.962-61.861 67.067-125.859 66.238-205.327-.829-79.468-36.229-142.031-70.491-202.502-34.516-60.948-70.194-123.96-71.034-204.552l3.719-.076c.829 79.494 36.229 142.03 70.492 202.501 34.515 60.922 70.193 123.96 71.033 204.525Z"/><path d="M709.48 380.011c.841 80.592-33.514 145.051-66.725 207.398-32.967 61.861-67.078 125.86-66.249 205.328.829 79.495 36.235 142.03 70.479 202.502 18.347 32.401 37.326 65.921 50.848 101.741l-3.432 1.57c-13.419-35.5-32.297-68.89-50.594-101.158-34.497-60.948-70.181-123.96-71.021-204.552-.841-80.592 33.514-145.05 66.724-207.398 32.968-61.861 67.079-125.859 66.25-205.327-.829-79.468-36.235-142.031-70.504-202.502-34.496-60.948-70.181-123.96-71.021-204.552l3.72-.076c.829 79.494 36.235 142.03 70.504 202.501 34.496 60.922 70.181 123.96 71.021 204.525Z"/><path d="M685.481 381.011c.84 80.592-33.521 145.051-66.737 207.399-32.974 61.86-67.091 125.859-66.262 205.327.829 79.495 36.241 142.03 70.491 202.502 18.35 32.401 37.333 65.921 50.856 101.741l-3.407 1.57c-13.421-35.5-32.303-68.89-50.603-101.158-34.502-60.948-70.192-123.96-71.033-204.552-.841-80.592 33.52-145.05 66.737-207.398 32.973-61.861 67.091-125.859 66.262-205.328-.829-79.468-36.242-142.03-70.516-202.501-34.502-60.949-70.193-123.96-71.033-204.552l3.721-.076c.829 79.494 36.241 142.03 70.515 202.501 34.478 60.922 70.168 123.96 71.009 204.525Z"/><path d="M660.481 381.011c.84 80.592-33.514 145.051-66.725 207.398-32.968 61.861-67.054 125.859-66.225 205.327.829 79.495 36.235 142.031 70.479 202.502 18.347 32.402 37.326 65.922 50.847 101.742l-3.456 1.57c-13.419-35.5-32.297-68.89-50.594-101.158-34.496-60.948-70.18-123.96-71.021-204.552-.841-80.592 33.514-145.05 66.725-207.398 32.967-61.86 67.054-125.858 66.225-205.327-.829-79.468-36.236-142.03-70.479-202.502-34.521-60.948-70.181-123.96-71.021-204.552l3.72-.076c.829 79.494 36.235 142.03 70.479 202.502 34.521 60.921 70.205 123.959 71.046 204.524Z"/><path d="M636.48 381.011c.841 80.592-33.513 145.051-66.724 207.398-32.968 61.861-67.079 125.86-66.25 205.328.829 79.495 36.235 142.03 70.479 202.502 18.373 32.461 37.352 65.971 50.873 101.771l-3.457 1.54c-13.419-35.5-32.297-68.89-50.594-101.158-34.496-60.948-70.181-123.96-71.021-204.552-.841-80.592 33.514-145.05 66.725-207.398 32.967-61.86 67.078-125.859 66.25-205.327-.829-79.468-36.236-142.03-70.504-202.502-34.497-60.948-70.181-123.96-71.021-204.552l3.72-.076c.829 79.494 36.235 142.03 70.504 202.501 34.496 60.922 70.18 123.96 71.02 204.525Z"/><path d="M611.481 382.011c.84 80.592-33.514 145.051-66.725 207.398-32.968 61.861-67.054 125.859-66.225 205.327.829 79.495 36.235 142.031 70.479 202.502 18.347 32.402 37.326 65.922 50.847 101.742l-3.456 1.57c-13.419-35.5-32.297-68.89-50.594-101.158-34.496-60.948-70.18-123.96-71.021-204.552-.841-80.592 33.514-145.05 66.725-207.398 32.967-61.86 67.054-125.858 66.225-205.327-.829-79.468-36.235-142.03-70.479-202.502-34.521-60.948-70.181-123.96-71.021-204.552l3.72-.076c.829 79.494 36.235 142.03 70.479 202.502 34.521 60.921 70.205 123.959 71.046 204.524Z"/><path d="M587.48 382.011c.841 80.592-33.514 145.051-66.724 207.398-32.968 61.861-67.079 125.86-66.25 205.328.829 79.495 36.235 142.03 70.479 202.502 18.347 32.401 37.327 65.921 50.848 101.741l-3.432 1.57c-13.419-35.5-32.297-68.89-50.594-101.158-34.496-60.948-70.181-123.96-71.021-204.552-.841-80.592 33.514-145.05 66.724-207.398 32.968-61.861 67.079-125.859 66.25-205.327-.829-79.468-36.235-142.031-70.504-202.502-34.496-60.948-70.18-123.96-71.021-204.552l3.72-.076c.829 79.494 36.236 142.03 70.504 202.501 34.496 60.922 70.181 123.96 71.021 204.525Z"/><path d="M563.481 382.011c.84 80.592-33.514 145.051-66.725 207.398-32.968 61.861-67.079 125.86-66.25 205.328.829 79.495 36.235 142.03 70.479 202.502 18.347 32.401 37.327 65.921 50.848 101.741l-3.432 1.57c-13.419-35.5-32.297-68.89-50.594-101.158-34.496-60.948-70.18-123.96-71.021-204.552-.84-80.592 33.514-145.05 66.725-207.398 32.967-61.86 67.079-125.859 66.25-205.327-.829-79.468-36.235-142.03-70.504-202.502-34.496-60.948-70.18-123.96-71.021-204.552l3.72-.076c.829 79.494 36.236 142.03 70.504 202.501 34.496 60.922 70.181 123.96 71.021 204.525Z"/><path d="M538.48 383.011c.841 80.592-33.52 145.051-66.736 207.399-32.974 61.86-67.066 125.859-66.238 205.327.83 79.495 36.242 142.03 70.491 202.502 18.351 32.401 37.334 65.921 50.857 101.741l-3.432 1.57c-13.421-35.5-32.328-68.89-50.603-101.16-34.502-60.946-70.193-123.958-71.033-204.55-.841-80.592 33.52-145.05 66.737-207.398 32.973-61.861 67.066-125.859 66.237-205.327-.829-79.468-36.242-142.03-70.491-202.502-34.527-60.948-70.193-123.96-71.033-204.552l3.721-.076c.829 79.494 36.241 142.03 70.49 202.501 34.503 60.922 70.193 123.96 71.033 204.525Z"/><path d="M514.481 383.011c.84 80.592-33.514 145.051-66.725 207.398-32.967 61.861-67.079 125.86-66.25 205.328.829 79.495 36.235 142.03 70.479 202.502 18.347 32.401 37.327 65.921 50.848 101.741l-3.432 1.57c-13.419-35.5-32.322-68.88-50.594-101.16-34.496-60.946-70.18-123.958-71.021-204.55-.84-80.592 33.514-145.05 66.725-207.398 32.968-61.86 67.079-125.859 66.25-205.327-.829-79.468-36.235-142.03-70.504-202.502-34.496-60.948-70.18-123.96-71.021-204.552l3.721-.076c.829 79.494 36.235 142.03 70.503 202.501 34.496 60.922 70.181 123.96 71.021 204.525Z"/><path d="M489.481 384.011c.84 80.592-33.514 145.051-66.725 207.398-32.968 61.861-67.054 125.859-66.225 205.327.829 79.495 36.235 142.031 70.479 202.502 18.347 32.402 37.326 65.922 50.848 101.742l-3.457 1.57c-13.419-35.5-32.297-68.89-50.594-101.16-34.496-60.946-70.18-123.958-71.021-204.55-.841-80.592 33.514-145.05 66.725-207.398 32.967-61.86 67.054-125.858 66.225-205.327-.829-79.468-36.235-142.03-70.479-202.502-34.497-60.948-70.181-123.96-71.021-204.552l3.72-.076c.829 79.494 36.235 142.03 70.479 202.502 34.521 60.921 70.205 123.959 71.046 204.524Z"/><path d="M465.48 384.011c.841 80.592-33.514 145.051-66.725 207.398-32.967 61.861-67.078 125.86-66.249 205.328.829 79.495 36.235 142.03 70.479 202.502 18.347 32.401 37.326 65.921 50.848 101.741l-3.432 1.57c-13.419-35.5-32.322-68.89-50.594-101.16-34.497-60.946-70.181-123.958-71.021-204.55-.841-80.592 33.514-145.05 66.724-207.398 32.968-61.861 67.079-125.859 66.25-205.327-.829-79.468-36.235-142.031-70.504-202.502-34.521-60.948-70.181-123.96-71.021-204.552l3.72-.076c.829 79.494 36.235 142.03 70.504 202.501 34.496 60.922 70.181 123.96 71.021 204.525Z"/><path d="M440.48 384.011c.841 80.592-33.514 145.051-66.724 207.398-32.968 61.861-67.079 125.86-66.25 205.328.829 79.495 36.235 142.03 70.504 202.501 18.323 32.462 37.302 65.972 50.823 101.772l-3.432 1.54c-13.419-35.5-32.297-68.89-50.594-101.16-34.496-60.946-70.18-123.958-71.021-204.55-.841-80.592 33.514-145.05 66.724-207.398 32.968-61.86 67.055-125.859 66.226-205.327-.829-79.468-36.236-142.03-70.479-202.502-34.522-60.948-70.181-123.96-71.021-204.552l3.72-.076c.829 79.494 36.235 142.03 70.503 202.501 34.497 60.922 70.181 123.96 71.021 204.525Z"/><path d="M416.481 385.011c.84 80.592-33.52 145.051-66.737 207.399-32.974 61.86-67.066 125.859-66.237 205.327.829 79.495 36.241 142.03 70.491 202.503 18.35 32.4 37.333 65.92 50.856 101.74l-3.432 1.57c-13.421-35.5-32.303-68.89-50.603-101.16-34.527-60.946-70.192-123.958-71.033-204.55-.841-80.592 33.52-145.05 66.737-207.398 32.973-61.861 67.091-125.859 66.262-205.328-.829-79.468-36.242-142.03-70.516-202.501-34.527-60.948-70.193-123.96-71.033-204.552l3.721-.076c.829 79.494 36.241 142.03 70.491 202.501 34.527 60.922 70.192 123.96 71.033 204.525Z"/><path d="M392.481 385.011c.84 80.592-33.514 145.051-66.725 207.398-32.968 61.861-67.054 125.859-66.225 205.327.829 79.495 36.235 142.031 70.479 202.504 18.347 32.4 37.326 65.92 50.847 101.74l-3.456 1.57c-13.419-35.5-32.297-68.89-50.594-101.16-34.496-60.946-70.18-123.958-71.021-204.55-.841-80.592 33.514-145.05 66.725-207.398 32.967-61.86 67.054-125.858 66.225-205.327-.829-79.468-36.235-142.03-70.479-202.502-34.497-60.948-70.181-123.96-71.021-204.552l3.72-.076c.829 79.494 36.235 142.03 70.479 202.502 34.521 60.921 70.205 123.959 71.046 204.524Z"/><path d="M367.481 385.011c.84 80.592-33.514 145.051-66.725 207.398-32.968 61.861-67.054 125.859-66.225 205.327.829 79.495 36.235 142.031 70.479 202.504 18.347 32.4 37.326 65.92 50.848 101.74l-3.457 1.57c-13.419-35.5-32.322-68.88-50.594-101.16-34.496-60.946-70.18-123.958-71.021-204.55-.841-80.592 33.514-145.05 66.725-207.398 32.967-61.86 67.054-125.858 66.225-205.327-.829-79.468-36.235-142.03-70.479-202.502-34.521-60.948-70.181-123.96-71.021-204.552l3.72-.076c.829 79.494 36.235 142.03 70.479 202.502 34.521 60.921 70.205 123.959 71.046 204.524Z"/><path d="M343.481 386.011c.84 80.592-33.514 145.051-66.725 207.398-32.968 61.861-67.054 125.859-66.225 205.327.829 79.495 36.235 142.031 70.479 202.504 18.347 32.4 37.326 65.92 50.848 101.74l-3.457 1.57c-13.419-35.5-32.297-68.89-50.594-101.16-34.496-60.946-70.18-123.958-71.021-204.55-.841-80.592 33.514-145.05 66.725-207.398 32.967-61.86 67.054-125.858 66.225-205.327-.829-79.468-36.235-142.03-70.479-202.502-34.521-60.948-70.181-123.96-71.021-204.552l3.72-.076c.829 79.494 36.235 142.03 70.479 202.502 34.521 60.921 70.205 123.959 71.046 204.524Z"/><path d="M318.48 386.011c.841 80.592-33.514 145.051-66.724 207.398-32.968 61.861-67.054 125.859-66.225 205.327.829 79.495 36.235 142.03 70.479 202.504 18.347 32.4 37.326 65.92 50.848 101.74l-3.457 1.57c-13.419-35.5-32.297-68.89-50.594-101.16-34.496-60.946-70.18-123.958-71.021-204.55-.841-80.592 33.514-145.05 66.724-207.398 32.968-61.86 67.079-125.859 66.25-205.327-.828-79.468-36.235-142.031-70.503-202.502-34.522-60.948-70.181-123.96-71.022-204.552l3.721-.076c.829 79.494 36.235 142.03 70.479 202.502 34.521 60.921 70.205 123.959 71.045 204.524Z"/><path d="M294.481 386.011c.84 80.592-33.514 145.051-66.725 207.398-32.968 61.861-67.054 125.859-66.225 205.327.829 79.468 36.235 142.031 70.479 202.504 18.347 32.4 37.326 65.92 50.847 101.74l-3.456 1.57c-13.419-35.5-32.297-68.89-50.594-101.16-34.496-60.946-70.18-123.958-71.021-204.55-.84-80.592 33.514-145.05 66.725-207.398 32.967-61.86 67.079-125.859 66.25-205.327-.829-79.468-36.235-142.03-70.504-202.502-34.496-60.948-70.18-123.96-71.021-204.552l3.72-.076c.829 79.494 36.236 142.03 70.479 202.502 34.521 60.921 70.206 123.959 71.046 204.524Z"/><path d="M270.48 387.011c.841 80.592-33.52 145.051-66.736 207.398-32.974 61.861-67.066 125.86-66.237 205.328.829 79.495 36.241 142.03 70.49 202.503 18.351 32.4 37.334 65.92 50.857 101.74l-3.432 1.57c-13.421-35.5-32.303-68.89-50.603-101.16-34.502-60.946-70.192-123.958-71.033-204.55-.841-80.592 33.52-145.05 66.737-207.398 32.973-61.861 67.091-125.86 66.262-205.328-.829-79.468-36.242-142.03-70.516-202.501-34.503-60.949-70.193-123.96-71.033-204.552l3.72-.076c.83 79.494 36.242 142.03 70.491 202.501 34.503 60.922 70.193 123.96 71.033 204.525Z"/><path d="M245.481 387.011c.84 80.592-33.514 145.051-66.725 207.398-32.968 61.861-67.054 125.859-66.225 205.327.829 79.495 36.235 142.031 70.479 202.504 18.348 32.46 37.327 65.97 50.848 101.77l-3.457 1.54c-13.419-35.5-32.297-68.89-50.594-101.16-34.496-60.946-70.18-123.958-71.021-204.55-.841-80.592 33.514-145.05 66.725-207.398 32.967-61.86 67.054-125.858 66.225-205.326-.829-79.469-36.235-142.031-70.479-202.503-34.521-60.948-70.18-123.96-71.021-204.552l3.72-.076c.829 79.494 36.236 142.03 70.479 202.502 34.521 60.921 70.205 123.959 71.046 204.524Z"/><path d="M221.48 387.011c.841 80.592-33.514 145.051-66.724 207.398-32.968 61.861-67.054 125.859-66.225 205.327.829 79.495 36.235 142.03 70.478 202.504 18.349 32.46 37.328 65.97 50.849 101.77l-3.457 1.54c-13.419-35.5-32.322-68.88-50.594-101.16-34.497-60.946-70.18-123.958-71.021-204.55-.84-80.592 33.514-145.05 66.724-207.398 32.968-61.86 67.054-125.859 66.225-205.327-.828-79.468-36.235-142.03-70.479-202.502-34.496-60.948-70.18-123.96-71.02-204.552l3.72-.076c.828 79.494 36.235 142.03 70.478 202.502 34.521 60.921 70.206 123.959 71.046 204.524Z"/><path d="M196.48 388.011c.841 80.592-33.514 145.051-66.724 207.398-32.968 61.861-67.054 125.859-66.225 205.327.829 79.495 36.235 142.03 70.478 202.504 18.349 32.46 37.328 65.97 50.849 101.77l-3.457 1.54c-13.419-35.5-32.297-68.89-50.594-101.16-34.496-60.946-70.18-123.958-71.021-204.55-.84-80.592 33.514-145.05 66.724-207.398 32.968-61.86 67.054-125.859 66.226-205.327-.829-79.468-36.236-142.03-70.479-202.502-34.522-60.948-70.181-123.96-71.022-204.552l3.72-.076c.83 79.494 36.236 142.03 70.48 202.502 34.521 60.921 70.205 123.959 71.045 204.524Z"/><path d="M172.48 388.011c.841 80.592-33.514 145.051-66.724 207.398-32.968 61.861-67.079 125.86-66.25 205.328.829 79.495 36.235 142.03 70.479 202.503 18.348 32.46 37.327 65.97 50.848 101.77l-3.432 1.54c-13.419-35.5-32.297-68.89-50.594-101.16-34.496-60.946-70.18-123.958-71.021-204.55-.84-80.592 33.514-145.05 66.724-207.398 32.968-61.86 67.055-125.858 66.226-205.327-.829-79.468-36.236-142.03-70.48-202.502-34.496-60.948-70.18-123.96-71.02-204.552l3.72-.076c.829 79.494 36.235 142.03 70.503 202.501 34.497 60.922 70.181 123.96 71.021 204.525Z"/><path d="M147.48 390.011c.841 80.592-33.514 145.051-66.724 207.398-32.968 61.861-67.08 125.86-66.25 205.328.829 79.495 36.235 142.03 70.479 202.503 18.348 32.46 37.327 65.97 50.848 101.77l-3.432 1.54c-13.419-35.5-32.297-68.89-50.594-101.16-34.497-60.946-70.18-123.958-71.021-204.55-.84-80.592 33.514-145.05 66.724-207.398 32.968-61.86 67.079-125.859 66.25-205.327-.829-79.468-36.235-142.031-70.504-202.502C38.76 126.665 3.076 63.653 2.236-16.939l3.72-.076c.828 79.494 36.235 142.03 70.503 202.501 34.496 60.922 70.181 123.96 71.021 204.525Z"/><path d="M123.48 390.011c.841 80.592-33.514 145.051-66.724 207.398C23.788 659.27-10.298 723.268-9.47 802.736c.829 79.495 36.235 142.03 70.478 202.504 18.349 32.46 37.328 65.97 50.849 101.77l-3.432 1.54c-13.419-35.5-32.322-68.89-50.594-101.16-34.522-60.946-70.206-123.958-71.046-204.55-.84-80.592 33.514-145.05 66.724-207.398 32.968-61.86 67.054-125.859 66.226-205.327-.829-79.468-36.236-142.03-70.48-202.502-34.52-60.948-70.18-123.96-71.02-204.552l3.72-.076c.829 79.494 36.235 142.03 70.478 202.502 34.522 60.921 70.206 123.959 71.046 204.524Z"/><path d="M95.794 388.525c.83 80.618-32.631 145.089-65.002 207.448-17.227 33.263-35.071 67.636-47.41 103.956l-3.397-1.401c12.456-36.644 30.37-71.152 47.694-104.524 32.11-61.899 65.333-125.883 64.515-205.404-.819-79.521-35.321-142.086-68.69-202.587-18.027-32.632-36.645-66.402-49.85-102.508l3.368-1.543c13.08 35.787 31.624 69.399 49.553 101.925 33.616 60.978 68.39 124.046 69.219 204.638ZM87.962 1107.37l-3.422 1.54c-13.276-35.47-31.956-68.82-50.061-101.07-18.256-32.607-37.161-66.301-50.566-102.359l3.422-1.543c13.279 35.766 32.11 69.328 50.314 101.782 18.156 32.4 36.936 65.88 50.313 101.65Z"/><path d="M73.373 388.984c.831 80.728-33.488 145.303-66.689 207.764-8.166 15.371-16.625 31.284-24.414 47.183l-3.29-1.861c7.814-15.953 16.272-31.893 24.463-47.292 32.933-61.972 67.01-126.086 66.19-205.716-.821-79.629-36.178-142.264-70.399-202.857-8.505-15.076-17.287-30.629-25.426-46.249l3.25-1.998c8.113 15.54 16.895 31.093 25.375 46.142 34.474 61.044 70.108 124.182 70.94 204.884ZM63.968 1107.89l-3.413 1.55c-13.243-35.54-31.877-68.96-49.912-101.26-8.406-15.065-17.087-30.635-25.156-46.244l3.212-1.997c8.02 15.557 16.676 31.1 25.082 46.141 18.11 32.43 36.843 65.98 50.187 101.81Z"/><path d="M49.858 390.487c.832 80.597-33.96 145.077-67.62 207.445l-3.259-1.966c33.387-61.907 67.934-125.9 67.113-205.4-.82-79.501-36.648-142.024-71.298-202.484l3.217-2.128c34.907 60.963 71.015 123.962 71.847 204.533ZM38.973 1108.41l-3.392 1.56c-13.144-35.77-31.695-69.38-49.626-101.86l3.095-2.17c18.03 32.67 36.655 66.41 49.923 102.47Z"/><path d="M24.34 392.032c.664 63.939-20.905 116.719-42.079 159.9l-3.28-1.855c20.955-42.723 42.308-94.937 41.654-157.968C19.98 329.079-2.42 277.8-24.28 235.94l3.241-1.991c22.061 42.31 44.715 94.145 45.379 158.083ZM13.98 1108.97l-3.304 1.53c-6.211-16.95-13.907-34.28-24.236-54.59l3.132-1.97c10.377 20.46 18.146 37.95 24.407 55.03Z"/><path d="M-.079 391.033c.356 33.95-5.655 67.604-18.344 102.893l-3.592-1.398C-9.5 457.724-3.561 424.554-3.912 391.111c-.35-33.442-6.956-66.354-20.22-100.628l3.56-1.545C-7.147 323.717-.434 357.109-.078 391.033Z"/></g></g></svg>